<svg width="21" height="21" viewBox="0 0 21 21" fill="none" xmlns="http://www.w3.org/2000/svg">
<g clip-path="url(#clip0_125_275)">
<path d="M20.4246 12.876C19.0398 18.4303 13.4139 21.8103 7.85895 20.4255C2.30658 19.0407 -1.0737 13.4148 0.311392 7.86081C1.69552 2.30585 7.32111 -1.07476 12.8745 0.310016C18.4291 1.69479 21.8094 7.32136 20.4246 12.876Z" fill="#F7931A"/>
<path d="M14.9395 8.89082C15.1455 7.51123 14.0951 6.7696 12.6588 6.27485L13.1247 4.40602L11.9868 4.12252L11.5333 5.9421C11.2345 5.86758 10.9274 5.79727 10.6222 5.72761L11.079 3.89605L9.94209 3.61255L9.47586 5.48073C9.22832 5.42435 8.98532 5.36862 8.74945 5.30998L8.75075 5.30415L7.18194 4.91243L6.87933 6.12743C6.87933 6.12743 7.72335 6.32086 7.70553 6.33284C8.16625 6.44786 8.24985 6.75275 8.23559 6.99445L7.70488 9.12345C7.73663 9.13155 7.77778 9.14321 7.82314 9.16136L7.70326 9.13155L6.95903 12.114C6.90266 12.2539 6.75977 12.4639 6.43772 12.3842C6.44906 12.4007 5.61087 12.1778 5.61087 12.1778L5.04614 13.4803L6.52682 13.8493C6.80222 13.9183 7.07211 13.9906 7.33746 14.0586L6.86669 15.9491L8.00296 16.2326L8.46952 14.3625C8.77958 14.4468 9.0809 14.5245 9.37574 14.5977L8.91113 16.4591L10.0487 16.7426L10.5195 14.856C12.4592 15.2231 13.9182 15.075 14.5315 13.3209C15.0263 11.9082 14.5072 11.0934 13.4866 10.5617C14.2299 10.3896 14.7901 9.90072 14.9395 8.89082ZM12.34 12.5355C11.9881 13.9481 9.60999 13.1848 8.83855 12.993L9.46322 10.4888C10.2343 10.6812 12.7065 11.0623 12.34 12.5355ZM12.6915 8.87041C12.3708 10.1554 10.3912 9.50253 9.74866 9.34247L10.315 7.07124C10.9575 7.23129 13.0259 7.53002 12.6915 8.87041Z" fill="white"/>
</g>
<defs>
<clipPath id="clip0_125_275">
<rect width="20.7359" height="20.7359" fill="white"/>
</clipPath>
</defs>
</svg>
