<svg width="20" height="22" viewBox="0 0 20 22" fill="none" xmlns="http://www.w3.org/2000/svg">
<path d="M19.686 2.80912C20.1329 2.3197 20.0984 1.56068 19.6089 1.11382C19.1195 0.666951 18.3605 0.701452 17.9136 1.19088L19.686 2.80912ZM0.801042 20.4545C0.831135 21.1165 1.39223 21.6289 2.05429 21.5988L12.8432 21.1084C13.5052 21.0783 14.0175 20.5172 13.9874 19.8551C13.9573 19.1931 13.3962 18.6807 12.7342 18.7108L3.14408 19.1467L2.70816 9.55665C2.67807 8.89459 2.11697 8.38228 1.45491 8.41238C0.792854 8.44247 0.280545 9.00357 0.310638 9.66563L0.801042 20.4545ZM17.9136 1.19088L1.11362 19.5909L2.88599 21.2091L19.686 2.80912L17.9136 1.19088Z" fill="#ABAEB2"/>
</svg>
