<svg width="976" height="1024" viewBox="0 0 976 1024" fill="none" xmlns="http://www.w3.org/2000/svg">
<g filter="url(#filter0_f_181_2)">
<circle cx="524.5" cy="757.5" r="224.5" fill="#CF41E8" fill-opacity="0.5"/>
</g>
<circle cx="413.25" cy="563.25" r="5.25" fill="#BDFD68" fill-opacity="0.37"/>
<circle cx="335.25" cy="621.75" r="5.25" fill="#ADFA47"/>
<circle cx="366" cy="466.5" r="3" fill="#D9D9D9"/>
<ellipse cx="525" cy="803.25" rx="243" ry="92.25" fill="url(#paint0_linear_181_2)"/>
<g filter="url(#filter1_d_181_2)">
<ellipse cx="525" cy="759.75" rx="187.5" ry="74.25" fill="url(#paint1_linear_181_2)"/>
</g>
<g filter="url(#filter2_dd_181_2)">
<ellipse cx="525" cy="717.75" rx="138" ry="48.75" fill="url(#paint2_linear_181_2)"/>
</g>
<g filter="url(#filter3_d_181_2)">
<path d="M458 0H591.746L594 746.355L553.855 753.045C534.163 756.327 514.07 756.391 494.357 753.234L458 747.413V0Z" fill="url(#paint3_linear_181_2)"/>
</g>
<g filter="url(#filter4_f_181_2)">
<rect x="458" y="587" width="138" height="124" fill="#96D83F"/>
</g>
<circle cx="365.25" cy="314.25" r="6.75" fill="#8ECB3E"/>
<circle opacity="0.5" cx="683.25" cy="287.25" r="6.75" fill="#6BA51F"/>
<circle cx="638.25" cy="371.25" r="3.75" fill="#D9D9D9" fill-opacity="0.5"/>
<circle cx="722.25" cy="642.75" r="6.75" fill="#C2FC76"/>
<circle cx="706.5" cy="493.5" r="4.5" fill="#BDFD68"/>
<circle opacity="0.5" cx="324.75" cy="396.75" r="5.25" fill="#98D448"/>
<g clip-path="url(#clip0_181_2)">
<path d="M621.965 560.846C617.357 579.328 598.636 590.575 580.152 585.967C561.676 581.359 550.428 562.639 555.037 544.157C559.643 525.673 578.362 514.424 596.841 519.032C615.325 523.64 626.573 542.362 621.965 560.846Z" fill="#F7931A"/>
<path d="M603.712 547.585C604.397 542.994 600.902 540.526 596.123 538.88L597.673 532.661L593.887 531.718L592.377 537.773C591.383 537.525 590.361 537.291 589.346 537.059L590.866 530.964L587.083 530.021L585.531 536.238C584.708 536.05 583.899 535.865 583.114 535.669L583.119 535.65L577.898 534.347L576.891 538.39C576.891 538.39 579.7 539.033 579.641 539.073C581.174 539.456 581.452 540.47 581.404 541.275L579.638 548.359C579.744 548.386 579.881 548.425 580.032 548.485L579.633 548.386L577.157 558.31C576.969 558.776 576.493 559.474 575.422 559.209C575.46 559.264 572.67 558.522 572.67 558.522L570.791 562.856L575.718 564.084C576.635 564.314 577.533 564.555 578.416 564.781L576.849 571.072L580.63 572.015L582.183 565.792C583.214 566.073 584.217 566.331 585.198 566.575L583.652 572.769L587.438 573.712L589.004 567.434C595.459 568.656 600.314 568.163 602.354 562.326C604.001 557.625 602.274 554.914 598.877 553.145C601.351 552.572 603.215 550.945 603.712 547.585ZM595.062 559.713C593.891 564.413 585.978 561.873 583.411 561.235L585.489 552.902C588.055 553.543 596.281 554.81 595.062 559.713ZM596.232 547.517C595.164 551.793 588.577 549.62 586.439 549.088L588.324 541.53C590.462 542.063 597.344 543.057 596.232 547.517Z" fill="white"/>
</g>
<path d="M428.459 350.637L443.786 377.184C443.852 377.298 443.803 377.478 443.689 377.543C443.089 378.346 442.603 379.082 442.003 379.884C441.24 380.932 440.364 382.046 439.668 383.208L436.894 387.087L434.608 390.231L431.834 394.111C431.072 395.158 430.31 396.206 429.499 397.434C428.899 398.236 428.251 399.218 427.65 400.02C427.537 400.086 427.602 400.2 427.423 400.152L427.309 400.218C427.322 399.451 427.4 398.797 427.413 398.03C427.46 393.902 427.621 389.707 427.668 385.578C427.697 381.156 427.84 376.668 427.869 372.245C427.916 368.116 427.963 363.987 428.076 359.973C428.128 356.904 428.245 353.95 428.183 350.948C428.41 350.816 428.345 350.702 428.459 350.637Z" fill="#8A92B2"/>
<path d="M471.744 374.563C470.692 376.689 469.461 378.767 468.344 380.779C464.669 387.306 461.042 393.654 457.367 400.182C457.253 400.247 457.319 400.361 457.205 400.427C457.091 400.493 457.025 400.379 457.025 400.379L456.828 400.037L444 377.819L443.803 377.478C443.737 377.364 443.851 377.298 443.965 377.232C444.552 377.197 445.14 377.162 445.841 377.061C447.603 376.955 449.413 376.669 451.175 376.564C452.757 376.41 454.225 376.322 455.742 376.054C457.324 375.9 458.792 375.812 460.375 375.658C461.663 375.521 463.066 375.319 464.42 375.297C465.708 375.161 467.111 374.959 468.465 374.936C469.46 374.818 470.521 374.813 471.63 374.628C471.564 374.515 471.63 374.628 471.744 374.563Z" fill="#454A75"/>
<path d="M470.099 422.759C469.985 422.825 469.985 422.825 469.805 422.776C465.684 420.902 461.743 419.075 457.623 417.201L445.261 411.577C441.32 409.75 437.265 407.99 433.259 406.049L430.168 404.643C430.102 404.53 429.988 404.595 429.923 404.481C430.036 404.416 430.102 404.53 430.216 404.464C434.345 404.511 438.588 404.492 442.717 404.539C447.498 404.664 452.328 404.61 457.11 404.736C457.877 404.749 458.758 404.696 459.525 404.709C459.639 404.643 459.705 404.757 459.771 404.871L470.099 422.759Z" fill="#8A92B2"/>
<path d="M427.422 400.152C427.537 400.085 427.537 400.085 427.422 400.152C427.489 400.267 427.489 400.267 427.422 400.152Z" fill="#808080"/>
<path d="M427.602 400.2C427.536 400.086 427.536 400.086 427.602 400.2C428.412 398.972 429.289 397.859 430.099 396.631L433.359 392.015C434.169 390.788 435.045 389.674 435.856 388.446C436.99 386.728 438.305 385.058 439.439 383.339C440.316 382.226 441.126 380.998 442.002 379.885C442.603 379.082 443.203 378.28 443.737 377.364C443.851 377.298 443.785 377.184 443.899 377.118L457.319 400.361C457.271 400.541 457.205 400.427 457.091 400.493C456.618 400.462 456.21 400.546 455.85 400.449L427.896 400.182C427.716 400.134 427.602 400.2 427.602 400.2Z" fill="#62688F"/>
<path d="M474.13 378.958C474.196 379.072 474.196 379.072 474.148 379.252C472.933 392.41 471.653 405.454 470.439 418.612C470.347 420.032 470.19 421.339 470.098 422.759L470.033 422.645L469.901 422.417L459.837 404.985L459.639 404.643C460.594 402.876 461.549 401.109 462.57 399.457L474.082 379.138C474.016 379.024 474.13 378.958 474.13 378.958Z" fill="#62688F"/>
<path d="M443.852 377.298L443.72 377.07L428.656 350.978L428.524 350.751L471.319 374.353C471.499 374.401 471.678 374.449 471.744 374.563C471.157 374.598 470.569 374.633 469.868 374.734C469.167 374.835 468.4 374.822 467.699 374.923C467.291 375.007 466.818 374.976 466.296 375.126C465.595 375.227 464.714 375.279 464.013 375.38C463.605 375.464 463.132 375.433 462.724 375.517L459.739 375.873C459.152 375.908 458.745 375.991 458.157 376.027C457.456 376.128 456.689 376.115 455.988 376.216C455.58 376.299 455.107 376.269 454.699 376.352L451.714 376.708C451.127 376.743 450.72 376.827 450.132 376.862C449.431 376.963 448.664 376.95 447.963 377.051C447.489 377.021 446.968 377.17 446.494 377.139L443.852 377.298Z" fill="#62688F"/>
<g clip-path="url(#clip1_181_2)">
<path d="M588.248 354.453C604.035 360.134 621.437 351.942 627.118 336.155C632.798 320.369 624.606 302.967 608.82 297.286C593.034 291.605 575.632 299.797 569.951 315.583C564.27 331.37 572.462 348.772 588.248 354.453Z" fill="#8247E5"/>
<path d="M610.196 323.158C609.654 322.513 608.763 322.192 607.865 322.32L601.417 323.453L597.066 324.14L590.618 325.273C589.789 325.425 588.898 325.104 588.287 324.434L584.898 320.512C584.356 319.866 584.139 318.962 584.426 318.164L586.124 313.445C586.411 312.647 587.086 312.064 587.983 311.937L593.003 311.115C593.832 310.963 594.723 311.284 595.334 311.954L598.678 315.785C599.221 316.431 599.437 317.335 599.15 318.132L598.05 321.19L602.425 320.437L603.525 317.379C603.812 316.582 603.664 315.702 603.054 315.032L596.885 307.857C596.343 307.212 595.452 306.891 594.554 307.018L585.091 308.568C584.194 308.696 583.519 309.279 583.232 310.077L580.051 318.918C579.764 319.715 579.912 320.594 580.522 321.265L586.828 328.489C587.37 329.135 588.261 329.455 589.159 329.328L595.583 328.261L599.958 327.508L606.382 326.441C607.211 326.289 608.102 326.61 608.713 327.28L612.058 331.111C612.6 331.757 612.817 332.661 612.529 333.458L610.831 338.178C610.544 338.976 609.87 339.559 608.972 339.686L603.929 340.574C603.1 340.727 602.208 340.406 601.598 339.736L598.253 335.904C597.711 335.259 597.494 334.355 597.781 333.557L598.881 330.499L594.506 331.252L593.406 334.31C593.119 335.108 593.267 335.987 593.878 336.657L600.183 343.882C600.725 344.527 601.617 344.848 602.514 344.72L611.977 343.17C612.806 343.018 613.549 342.46 613.836 341.662L617.018 332.821C617.305 332.023 617.157 331.144 616.546 330.474L610.196 323.158Z" fill="white"/>
</g>
<path d="M475.889 109.327L475.926 109.362C488.182 121.139 488.603 140.595 476.866 152.81L475.683 154.041C463.946 166.256 444.488 166.612 432.232 154.835L432.196 154.8C419.939 143.024 419.518 123.567 431.255 111.352L432.439 110.121C444.176 97.9059 463.633 97.5505 475.889 109.327Z" fill="#232323"/>
<path d="M468.958 135.581C468.807 135.593 468.655 135.569 468.52 135.509C468.377 135.458 468.251 135.372 468.142 135.267L447.563 115.494C446.836 114.795 447.334 113.532 448.365 113.477L455.181 113.148C455.332 113.137 455.484 113.161 455.636 113.22C455.78 113.271 455.906 113.357 456.015 113.462L476.675 133.314C477.411 134.021 476.896 135.285 475.856 135.331L468.958 135.581ZM453.593 151.572C453.29 151.577 452.995 151.467 452.776 151.258L432.198 131.484C431.471 130.786 431.951 129.541 432.965 129.504L439.703 129.257C439.854 129.245 440.015 129.278 440.15 129.338C440.293 129.388 440.419 129.475 440.528 129.58L461.189 149.431C461.924 150.139 461.427 151.384 460.404 151.412L453.593 151.572ZM465.817 138.85C465.81 138.547 465.689 138.256 465.47 138.047L444.892 118.273C444.165 117.575 442.94 118.105 442.944 119.119L442.966 125.861C442.96 126.013 442.999 126.172 443.064 126.304C443.121 126.446 443.212 126.568 443.321 126.673L463.981 146.525C464.717 147.232 465.942 146.685 465.929 145.662L465.817 138.85Z" fill="url(#paint4_linear_181_2)"/>
<defs>
<filter id="filter0_f_181_2" x="0" y="233" width="1049" height="1049" filterUnits="userSpaceOnUse" color-interpolation-filters="sRGB">
<feFlood flood-opacity="0" result="BackgroundImageFix"/>
<feBlend mode="normal" in="SourceGraphic" in2="BackgroundImageFix" result="shape"/>
<feGaussianBlur stdDeviation="150" result="effect1_foregroundBlur_181_2"/>
</filter>
<filter id="filter1_d_181_2" x="297" y="652.5" width="468" height="241.5" filterUnits="userSpaceOnUse" color-interpolation-filters="sRGB">
<feFlood flood-opacity="0" result="BackgroundImageFix"/>
<feColorMatrix in="SourceAlpha" type="matrix" values="0 0 0 0 0 0 0 0 0 0 0 0 0 0 0 0 0 0 127 0" result="hardAlpha"/>
<feMorphology radius="9" operator="dilate" in="SourceAlpha" result="effect1_dropShadow_181_2"/>
<feOffset dx="6" dy="13.5"/>
<feGaussianBlur stdDeviation="18.75"/>
<feComposite in2="hardAlpha" operator="out"/>
<feColorMatrix type="matrix" values="0 0 0 0 0 0 0 0 0 0 0 0 0 0 0 0 0 0 0.5 0"/>
<feBlend mode="normal" in2="BackgroundImageFix" result="effect1_dropShadow_181_2"/>
<feBlend mode="normal" in="SourceGraphic" in2="effect1_dropShadow_181_2" result="shape"/>
</filter>
<filter id="filter2_dd_181_2" x="318" y="591" width="414" height="235.5" filterUnits="userSpaceOnUse" color-interpolation-filters="sRGB">
<feFlood flood-opacity="0" result="BackgroundImageFix"/>
<feColorMatrix in="SourceAlpha" type="matrix" values="0 0 0 0 0 0 0 0 0 0 0 0 0 0 0 0 0 0 127 0" result="hardAlpha"/>
<feMorphology radius="15" operator="dilate" in="SourceAlpha" result="effect1_dropShadow_181_2"/>
<feOffset dx="3" dy="10.5"/>
<feGaussianBlur stdDeviation="11.25"/>
<feComposite in2="hardAlpha" operator="out"/>
<feColorMatrix type="matrix" values="0 0 0 0 0 0 0 0 0 0 0 0 0 0 0 0 0 0 0.65 0"/>
<feBlend mode="normal" in2="BackgroundImageFix" result="effect1_dropShadow_181_2"/>
<feColorMatrix in="SourceAlpha" type="matrix" values="0 0 0 0 0 0 0 0 0 0 0 0 0 0 0 0 0 0 127 0" result="hardAlpha"/>
<feMorphology radius="1.5" operator="dilate" in="SourceAlpha" result="effect2_dropShadow_181_2"/>
<feOffset dy="-9"/>
<feGaussianBlur stdDeviation="33.75"/>
<feComposite in2="hardAlpha" operator="out"/>
<feColorMatrix type="matrix" values="0 0 0 0 0.741176 0 0 0 0 0.992157 0 0 0 0 0.407843 0 0 0 0.4 0"/>
<feBlend mode="normal" in2="effect1_dropShadow_181_2" result="effect2_dropShadow_181_2"/>
<feBlend mode="normal" in="SourceGraphic" in2="effect2_dropShadow_181_2" result="shape"/>
</filter>
<filter id="filter3_d_181_2" x="339.5" y="-112.5" width="373" height="992.555" filterUnits="userSpaceOnUse" color-interpolation-filters="sRGB">
<feFlood flood-opacity="0" result="BackgroundImageFix"/>
<feColorMatrix in="SourceAlpha" type="matrix" values="0 0 0 0 0 0 0 0 0 0 0 0 0 0 0 0 0 0 127 0" result="hardAlpha"/>
<feOffset dy="6"/>
<feGaussianBlur stdDeviation="59.25"/>
<feComposite in2="hardAlpha" operator="out"/>
<feColorMatrix type="matrix" values="0 0 0 0 0.741176 0 0 0 0 0.992157 0 0 0 0 0.407843 0 0 0 0.25 0"/>
<feBlend mode="normal" in2="BackgroundImageFix" result="effect1_dropShadow_181_2"/>
<feBlend mode="normal" in="SourceGraphic" in2="effect1_dropShadow_181_2" result="shape"/>
</filter>
<filter id="filter4_f_181_2" x="360.5" y="489.5" width="333" height="319" filterUnits="userSpaceOnUse" color-interpolation-filters="sRGB">
<feFlood flood-opacity="0" result="BackgroundImageFix"/>
<feBlend mode="normal" in="SourceGraphic" in2="BackgroundImageFix" result="shape"/>
<feGaussianBlur stdDeviation="48.75" result="effect1_foregroundBlur_181_2"/>
</filter>
<linearGradient id="paint0_linear_181_2" x1="525" y1="711" x2="525" y2="895.5" gradientUnits="userSpaceOnUse">
<stop offset="0.753125" stop-color="#141414"/>
<stop offset="1" stop-color="#2C2C2C"/>
</linearGradient>
<linearGradient id="paint1_linear_181_2" x1="525" y1="685.5" x2="525" y2="834" gradientUnits="userSpaceOnUse">
<stop offset="0.539583" stop-color="#181818"/>
<stop offset="1" stop-color="#353535"/>
</linearGradient>
<linearGradient id="paint2_linear_181_2" x1="525" y1="669" x2="525" y2="766.5" gradientUnits="userSpaceOnUse">
<stop offset="0.227946" stop-color="#7CB531"/>
<stop offset="1" stop-color="#619C12"/>
</linearGradient>
<linearGradient id="paint3_linear_181_2" x1="524.873" y1="0" x2="524.873" y2="702.951" gradientUnits="userSpaceOnUse">
<stop stop-color="#BDFD68"/>
<stop offset="0.534375" stop-color="#98D448"/>
<stop offset="1" stop-color="#73AF24"/>
</linearGradient>
<linearGradient id="paint4_linear_181_2" x1="432.688" y1="132.466" x2="476.127" y2="132.108" gradientUnits="userSpaceOnUse">
<stop stop-color="#CF41E8"/>
<stop offset="1" stop-color="#10F2B0"/>
</linearGradient>
<clipPath id="clip0_181_2">
<rect width="69" height="69" fill="white" transform="translate(554 518)"/>
</clipPath>
<clipPath id="clip1_181_2">
<rect width="60.7557" height="60.7557" fill="white" transform="translate(580.237 287) rotate(19.7916)"/>
</clipPath>
</defs>
</svg>
