<svg width="20" height="21" viewBox="0 0 20 21" fill="none" xmlns="http://www.w3.org/2000/svg">
<path d="M19.686 18.7909C20.1329 19.2803 20.0984 20.0393 19.6089 20.4862C19.1195 20.933 18.3605 20.8985 17.9136 20.4091L19.686 18.7909ZM0.801042 1.14549C0.831135 0.483427 1.39223 -0.0288817 2.05429 0.00121234L12.8432 0.491615C13.5052 0.521709 14.0175 1.08281 13.9874 1.74487C13.9573 2.40692 13.3962 2.91923 12.7342 2.88914L3.14408 2.45323L2.70816 12.0433C2.67807 12.7054 2.11697 13.2177 1.45491 13.1876C0.792854 13.1575 0.280545 12.5964 0.310638 11.9343L0.801042 1.14549ZM17.9136 20.4091L1.11362 2.0091L2.88599 0.390851L19.686 18.7909L17.9136 20.4091Z" fill="#ABAEB2"/>
</svg>
