<svg width="260" height="34" viewBox="0 0 260 34" fill="none" xmlns="http://www.w3.org/2000/svg">
<path d="M26.684 19.972V20.836C26.684 26.092 24.524 28 18.62 28H1.124C1.196 26.38 1.34 24.76 1.448 23.14H18.296C20.924 23.14 21.68 22.528 21.68 20.404C21.68 18.316 20.96 17.668 18.404 17.668H8.36C2.42 17.668 0.512 15.544 0.512 11.008V10.18C0.512 5.248 2.492 3.232 8.504 3.232H25.856C25.676 4.888 25.46 6.508 25.244 8.164H8.504C6.128 8.164 5.444 8.92 5.444 10.864C5.444 12.808 6.128 13.6 8.504 13.6H18.404C24.56 13.6 26.684 15.616 26.684 19.972ZM50.6445 28H37.7205C33.0405 28 30.2685 26.02 30.2685 21.16V15.4C30.2685 10.54 33.0405 8.56 37.7205 8.56H44.1645C48.8805 8.56 51.6525 10.54 51.6525 15.4V19.972H35.0565V21.16C35.0565 23.14 36.0645 23.824 37.7205 23.824H51.2565L50.6445 28ZM46.8285 16.948V15.652C46.8285 13.564 46.0725 12.736 44.1645 12.736H37.7205C35.8125 12.736 35.0565 13.564 35.0565 15.4V16.948H46.8285ZM66.628 23.644L65.908 27.784C65.44 28.072 64.288 28.36 63.064 28.36C58.204 28.36 56.224 25.156 56.224 19V12.124H54.028L54.604 8.56H56.224V4.24L61.048 2.656V8.56H65.08L64.504 12.124H61.048V19C61.048 22.42 62.056 24.148 64.468 24.148C65.476 24.148 66.196 23.968 66.628 23.644ZM80.128 23.644L79.408 27.784C78.94 28.072 77.788 28.36 76.564 28.36C71.704 28.36 69.724 25.156 69.724 19V12.124H67.528L68.104 8.56H69.724V4.24L74.548 2.656V8.56H78.58L78.004 12.124H74.548V19C74.548 22.42 75.556 24.148 77.968 24.148C78.976 24.148 79.696 23.968 80.128 23.644ZM87.616 28H82.828V2.584L87.616 0.963998V28ZM112.309 28H99.3846C94.7046 28 91.9326 26.02 91.9326 21.16V15.4C91.9326 10.54 94.7046 8.56 99.3846 8.56H105.829C110.545 8.56 113.317 10.54 113.317 15.4V19.972H96.7206V21.16C96.7206 23.14 97.7286 23.824 99.3846 23.824H112.921L112.309 28ZM108.493 16.948V15.652C108.493 13.564 107.737 12.736 105.829 12.736H99.3846C97.4766 12.736 96.7206 13.564 96.7206 15.4V16.948H108.493ZM143.016 19.972V20.836C143.016 26.092 140.856 28 134.952 28H117.456C117.528 26.38 117.672 24.76 117.78 23.14H134.628C137.256 23.14 138.012 22.528 138.012 20.404C138.012 18.316 137.292 17.668 134.736 17.668H124.692C118.752 17.668 116.844 15.544 116.844 11.008V10.18C116.844 5.248 118.824 3.232 124.836 3.232H142.188C142.008 4.888 141.792 6.508 141.576 8.164H124.836C122.46 8.164 121.776 8.92 121.776 10.864C121.776 12.808 122.46 13.6 124.836 13.6H134.736C140.892 13.6 143.016 15.616 143.016 19.972ZM160.533 28H156.069C153.801 28 152.469 27.244 151.425 25.192V33.58H146.637V8.56H151.245V11.368C152.289 9.316 153.585 8.56 155.889 8.56H160.533C166.149 8.56 168.021 11.08 168.021 16.336V20.224C168.021 25.48 166.149 28 160.533 28ZM163.197 20.08V16.48C163.197 13.888 162.729 12.736 160.533 12.736H154.269C152.577 12.736 151.749 13.276 151.425 14.608V21.952C151.749 23.284 152.577 23.824 154.269 23.824H160.533C162.729 23.824 163.197 22.672 163.197 20.08ZM193.253 28H188.429V15.724C188.429 13.744 187.781 12.736 185.765 12.736H179.501C178.097 12.736 177.449 13.312 177.089 14.608V28H172.301V2.584L177.089 0.963998V11.368C178.133 9.316 179.465 8.56 181.733 8.56H185.765C191.417 8.56 193.253 11.08 193.253 16.336V28ZM217.883 28H204.959C200.279 28 197.507 26.02 197.507 21.16V15.4C197.507 10.54 200.279 8.56 204.959 8.56H211.403C216.119 8.56 218.891 10.54 218.891 15.4V19.972H202.295V21.16C202.295 23.14 203.303 23.824 204.959 23.824H218.495L217.883 28ZM214.067 16.948V15.652C214.067 13.564 213.311 12.736 211.403 12.736H204.959C203.051 12.736 202.295 13.564 202.295 15.4V16.948H214.067ZM227.854 28H223.03V8.56H227.674V11.224C228.538 9.28 230.302 8.416 232.462 8.416C233.506 8.416 234.478 8.668 235.198 8.992L234.514 13.312C233.866 12.736 233.11 12.556 231.562 12.556C229.366 12.556 228.106 13.528 227.854 15.112V28ZM258.137 28H245.213C240.533 28 237.761 26.02 237.761 21.16V15.4C237.761 10.54 240.533 8.56 245.213 8.56H251.657C256.373 8.56 259.145 10.54 259.145 15.4V19.972H242.549V21.16C242.549 23.14 243.557 23.824 245.213 23.824H258.749L258.137 28ZM254.321 16.948V15.652C254.321 13.564 253.565 12.736 251.657 12.736H245.213C243.305 12.736 242.549 13.564 242.549 15.4V16.948H254.321Z" fill="url(#paint0_linear_72_445)"/>
<defs>
<linearGradient id="paint0_linear_72_445" x1="-10" y1="28" x2="274.5" y2="28" gradientUnits="userSpaceOnUse">
<stop stop-color="#BDFA6A"/>
<stop offset="0.358333" stop-color="#C88DB4"/>
<stop offset="1" stop-color="#CF41E8"/>
</linearGradient>
</defs>
</svg>
