<svg width="42" height="43" viewBox="0 0 42 43" fill="none" xmlns="http://www.w3.org/2000/svg">
<path d="M21.0588 0.854675H21.0919C32.2647 0.854675 41.3255 9.8849 41.3255 21.02V22.1426C41.3255 33.2776 32.2647 42.3078 21.0919 42.3078H21.0588C9.886 42.3078 0.825195 33.2776 0.825195 22.1426V21.02C0.825195 9.8849 9.886 0.854675 21.0588 0.854675Z" fill="#232323"/>
<path d="M29.7297 16.4555C29.6634 16.5298 29.5806 16.5876 29.4895 16.6206C29.3984 16.6618 29.299 16.6784 29.1996 16.6784L10.4403 16.6784C9.77771 16.6784 9.43814 15.8529 9.90194 15.3577L12.9829 12.0972C13.0492 12.0229 13.132 11.9651 13.2314 11.9239C13.3225 11.8826 13.4219 11.8661 13.5213 11.8661L32.3552 11.8661C33.026 11.8661 33.3573 12.6998 32.8852 13.195L29.7297 16.4555ZM29.7297 31.0326C29.5889 31.1729 29.3984 31.2555 29.1996 31.2555L10.4403 31.2555C9.77771 31.2555 9.43814 30.4466 9.90194 29.9678L12.9829 26.7816C13.0492 26.7074 13.1403 26.6496 13.2314 26.6166C13.3225 26.5753 13.4219 26.5588 13.5213 26.5588L32.3552 26.5588C33.026 26.5588 33.3573 27.376 32.8852 27.8547L29.7297 31.0326ZM29.7297 19.4353C29.5889 19.295 29.3984 19.2124 29.1996 19.2124L10.4403 19.2124C9.77771 19.2124 9.43814 20.0214 9.90194 20.5001L12.9829 23.6863C13.0492 23.7606 13.1403 23.8183 13.2314 23.8514C13.3225 23.8926 13.4219 23.9091 13.5213 23.9091L32.3552 23.9091C33.026 23.9091 33.3573 23.092 32.8852 22.6132L29.7297 19.4353Z" fill="url(#paint0_linear_110_210)"/>
<defs>
<linearGradient id="paint0_linear_110_210" x1="11.1198" y1="31.4975" x2="31.5456" y2="11.5439" gradientUnits="userSpaceOnUse">
<stop stop-color="#CF41E8"/>
<stop offset="1" stop-color="#10F2B0"/>
</linearGradient>
</defs>
</svg>
